<?xml version="1.0" encoding="UTF-8"?>
<svg xmlns="http://www.w3.org/2000/svg" xmlns:xlink="http://www.w3.org/1999/xlink" width="215.199pt" height="144.4pt" viewBox="0 0 215.199 144.4" version="1.1">
<defs>
<clipPath id="clip1">
  <path d="M 16 0 L 17 0 L 17 144.398438 L 16 144.398438 Z M 16 0 "/>
</clipPath>
<clipPath id="clip2">
  <path d="M 9 3 L 215.199219 3 L 215.199219 89 L 9 89 Z M 9 3 "/>
</clipPath>
<clipPath id="clip3">
  <path d="M 206 3 L 215.199219 3 L 215.199219 10 L 206 10 Z M 206 3 "/>
</clipPath>
</defs>
<g id="surface1">
<g clip-path="url(#clip1)" clip-rule="nonzero">
<path style="fill:none;stroke-width:0.4;stroke-linecap:butt;stroke-linejoin:round;stroke:rgb(66.299438%,66.299438%,66.299438%);stroke-opacity:1;stroke-miterlimit:10;" d="M 191.999219 624.000781 L 191.999219 768.000781 " transform="matrix(1,0,0,-1,-175.8,768.2)"/>
</g>
<path style="fill-rule:evenodd;fill:rgb(66.299438%,66.299438%,66.299438%);fill-opacity:1;stroke-width:0.4;stroke-linecap:butt;stroke-linejoin:round;stroke:rgb(66.299438%,66.299438%,66.299438%);stroke-opacity:1;stroke-miterlimit:10;" d="M 191.999219 768.000781 L 189.667188 761.000781 L 194.33125 761.000781 Z M 191.999219 768.000781 " transform="matrix(1,0,0,-1,-175.8,768.2)"/>
<path style="fill:none;stroke-width:0.4;stroke-linecap:butt;stroke-linejoin:round;stroke:rgb(66.299438%,66.299438%,66.299438%);stroke-opacity:1;stroke-miterlimit:10;" d="M 175.999219 640.000781 L 383.999219 640.000781 " transform="matrix(1,0,0,-1,-175.8,768.2)"/>
<path style="fill-rule:evenodd;fill:rgb(66.299438%,66.299438%,66.299438%);fill-opacity:1;stroke-width:0.4;stroke-linecap:butt;stroke-linejoin:round;stroke:rgb(66.299438%,66.299438%,66.299438%);stroke-opacity:1;stroke-miterlimit:10;" d="M 383.999219 640.000781 L 376.999219 642.332813 L 376.999219 637.66875 Z M 383.999219 640.000781 " transform="matrix(1,0,0,-1,-175.8,768.2)"/>
<path style=" stroke:none;fill-rule:evenodd;fill:rgb(0%,0%,0%);fill-opacity:1;" d="M 46.164062 36.015625 C 46.164062 35.019531 45.355469 34.214844 44.363281 34.214844 C 43.367188 34.214844 42.5625 35.019531 42.5625 36.015625 C 42.5625 37.007812 43.367188 37.816406 44.363281 37.816406 C 45.355469 37.816406 46.164062 37.007812 46.164062 36.015625 "/>
<path style=" stroke:none;fill-rule:evenodd;fill:rgb(0%,0%,0%);fill-opacity:1;" d="M 40.972656 61.761719 C 40.972656 60.769531 40.164062 59.964844 39.171875 59.964844 C 38.179688 59.964844 37.371094 60.769531 37.371094 61.761719 C 37.371094 62.757812 38.179688 63.5625 39.171875 63.5625 C 40.164062 63.5625 40.972656 62.757812 40.972656 61.761719 "/>
<path style=" stroke:none;fill-rule:evenodd;fill:rgb(0%,0%,0%);fill-opacity:1;" d="M 69.554688 56.28125 C 69.554688 55.289062 68.75 54.480469 67.753906 54.480469 C 66.761719 54.480469 65.953125 55.289062 65.953125 56.28125 C 65.953125 57.277344 66.761719 58.082031 67.753906 58.082031 C 68.75 58.082031 69.554688 57.277344 69.554688 56.28125 "/>
<path style=" stroke:none;fill-rule:evenodd;fill:rgb(0%,0%,0%);fill-opacity:1;" d="M 42.949219 100.769531 C 42.949219 99.777344 42.144531 98.96875 41.152344 98.96875 C 40.15625 98.96875 39.351562 99.777344 39.351562 100.769531 C 39.351562 101.765625 40.15625 102.570312 41.152344 102.570312 C 42.144531 102.570312 42.949219 101.765625 42.949219 100.769531 "/>
<path style=" stroke:none;fill-rule:evenodd;fill:rgb(0%,0%,0%);fill-opacity:1;" d="M 101.296875 39.484375 C 101.296875 38.488281 100.492188 37.683594 99.496094 37.683594 C 98.503906 37.683594 97.699219 38.488281 97.699219 39.484375 C 97.699219 40.476562 98.503906 41.285156 99.496094 41.285156 C 100.492188 41.285156 101.296875 40.476562 101.296875 39.484375 "/>
<path style=" stroke:none;fill-rule:evenodd;fill:rgb(0%,0%,0%);fill-opacity:1;" d="M 124.574219 12.632812 C 124.574219 11.636719 123.769531 10.832031 122.773438 10.832031 C 121.78125 10.832031 120.976562 11.636719 120.976562 12.632812 C 120.976562 13.625 121.78125 14.429688 122.773438 14.429688 C 123.769531 14.429688 124.574219 13.625 124.574219 12.632812 "/>
<path style=" stroke:none;fill-rule:evenodd;fill:rgb(0%,0%,0%);fill-opacity:1;" d="M 140.304688 15.316406 C 140.304688 14.320312 139.5 13.515625 138.503906 13.515625 C 137.511719 13.515625 136.703125 14.320312 136.703125 15.316406 C 136.703125 16.308594 137.511719 17.113281 138.503906 17.113281 C 139.5 17.113281 140.304688 16.308594 140.304688 15.316406 "/>
<path style=" stroke:none;fill-rule:evenodd;fill:rgb(0%,0%,0%);fill-opacity:1;" d="M 173.171875 31.402344 C 173.171875 30.40625 172.363281 29.601562 171.371094 29.601562 C 170.375 29.601562 169.570312 30.40625 169.570312 31.402344 C 169.570312 32.394531 170.375 33.199219 171.371094 33.199219 C 172.363281 33.199219 173.171875 32.394531 173.171875 31.402344 "/>
<path style=" stroke:none;fill-rule:evenodd;fill:rgb(0%,0%,0%);fill-opacity:1;" d="M 184.441406 15.539062 C 184.441406 14.546875 183.636719 13.738281 182.644531 13.738281 C 181.648438 13.738281 180.84375 14.546875 180.84375 15.539062 C 180.84375 16.53125 181.648438 17.339844 182.644531 17.339844 C 183.636719 17.339844 184.441406 16.53125 184.441406 15.539062 "/>
<path style=" stroke:none;fill-rule:evenodd;fill:rgb(0%,0%,0%);fill-opacity:1;" d="M 200.0625 10.429688 C 200.0625 9.4375 199.257812 8.632812 198.261719 8.632812 C 197.269531 8.632812 196.460938 9.4375 196.460938 10.429688 C 196.460938 11.425781 197.269531 12.230469 198.261719 12.230469 C 199.257812 12.230469 200.0625 11.425781 200.0625 10.429688 "/>
<path style=" stroke:none;fill-rule:evenodd;fill:rgb(0%,0%,0%);fill-opacity:1;" d="M 200.214844 25.039062 C 200.214844 24.042969 199.410156 23.238281 198.414062 23.238281 C 197.421875 23.238281 196.613281 24.042969 196.613281 25.039062 C 196.613281 26.03125 197.421875 26.839844 198.414062 26.839844 C 199.410156 26.839844 200.214844 26.03125 200.214844 25.039062 "/>
<path style=" stroke:none;fill-rule:evenodd;fill:rgb(0%,0%,0%);fill-opacity:1;" d="M 160.085938 20.585938 C 160.085938 19.59375 159.277344 18.785156 158.285156 18.785156 C 157.289062 18.785156 156.484375 19.59375 156.484375 20.585938 C 156.484375 21.582031 157.289062 22.386719 158.285156 22.386719 C 159.277344 22.386719 160.085938 21.582031 160.085938 20.585938 "/>
<path style=" stroke:none;fill-rule:evenodd;fill:rgb(0%,0%,0%);fill-opacity:1;" d="M 137.09375 43.613281 C 137.09375 42.621094 136.289062 41.816406 135.296875 41.816406 C 134.300781 41.816406 133.496094 42.621094 133.496094 43.613281 C 133.496094 44.609375 134.300781 45.414062 135.296875 45.414062 C 136.289062 45.414062 137.09375 44.609375 137.09375 43.613281 "/>
<path style=" stroke:none;fill-rule:evenodd;fill:rgb(0%,0%,0%);fill-opacity:1;" d="M 93.75 61.585938 C 93.75 60.589844 92.945312 59.785156 91.949219 59.785156 C 90.957031 59.785156 90.148438 60.589844 90.148438 61.585938 C 90.148438 62.578125 90.957031 63.386719 91.949219 63.386719 C 92.945312 63.386719 93.75 62.578125 93.75 61.585938 "/>
<path style=" stroke:none;fill-rule:evenodd;fill:rgb(0%,0%,0%);fill-opacity:1;" d="M 64.359375 88.507812 C 64.359375 87.515625 63.554688 86.707031 62.558594 86.707031 C 61.566406 86.707031 60.761719 87.515625 60.761719 88.507812 C 60.761719 89.503906 61.566406 90.308594 62.558594 90.308594 C 63.554688 90.308594 64.359375 89.503906 64.359375 88.507812 "/>
<path style=" stroke:none;fill-rule:evenodd;fill:rgb(0%,0%,0%);fill-opacity:1;" d="M 43.78125 74.828125 C 43.78125 73.832031 42.972656 73.027344 41.980469 73.027344 C 40.984375 73.027344 40.179688 73.832031 40.179688 74.828125 C 40.179688 75.820312 40.984375 76.628906 41.980469 76.628906 C 42.972656 76.628906 43.78125 75.820312 43.78125 74.828125 "/>
<g clip-path="url(#clip2)" clip-rule="nonzero">
<path style="fill:none;stroke-width:1.2;stroke-linecap:butt;stroke-linejoin:round;stroke:rgb(54.499817%,0%,0%);stroke-opacity:1;stroke-miterlimit:10;" d="M 185.749219 679.8875 L 390.397656 763.758594 " transform="matrix(1,0,0,-1,-175.8,768.2)"/>
</g>
<path style=" stroke:none;fill-rule:evenodd;fill:rgb(54.499817%,0%,0%);fill-opacity:1;" d="M 214.597656 4.441406 L 207.238281 4.941406 L 209.007812 9.253906 Z M 214.597656 4.441406 "/>
<g clip-path="url(#clip3)" clip-rule="nonzero">
<path style="fill:none;stroke-width:1.2;stroke-linecap:butt;stroke-linejoin:round;stroke:rgb(54.499817%,0%,0%);stroke-opacity:1;stroke-miterlimit:10;" d="M 390.397656 763.758594 L 383.038281 763.258594 L 384.807813 758.946094 Z M 390.397656 763.758594 " transform="matrix(1,0,0,-1,-175.8,768.2)"/>
</g>
<path style="fill-rule:evenodd;fill:rgb(54.499817%,0%,0%);fill-opacity:1;stroke-width:1.2;stroke-linecap:butt;stroke-linejoin:round;stroke:rgb(54.499817%,0%,0%);stroke-opacity:1;stroke-miterlimit:10;" d="M 185.749219 679.8875 L 193.1125 680.383594 L 191.342969 684.696094 Z M 185.749219 679.8875 " transform="matrix(1,0,0,-1,-175.8,768.2)"/>
</g>
</svg>
